<svg width="24" height="40" viewBox="0 0 24 40" fill="none" xmlns="http://www.w3.org/2000/svg">
<path fill-rule="evenodd" clip-rule="evenodd" d="M4.98027 0H18.9799C21.7776 0.032959 24.022 2.32209 23.9997 5.12V34.88C24.0222 37.6626 21.8019 39.9453 19.0199 40H5.02027C2.22255 39.967 -0.0218121 37.6779 0.000412859 34.88V5.12C-0.0220345 2.33744 2.19824 0.054686 4.98027 0ZM20.6003 36.5115C21.0279 36.0764 21.2651 35.4893 21.2598 34.8793V5.12076C21.2651 4.51078 21.0279 3.92368 20.6003 3.48861C20.1728 3.05354 19.5899 2.80615 18.9799 2.80087H17.4799V2.98086C17.48 3.91194 16.731 4.66983 15.8 4.68078H8.20019C7.26915 4.66983 6.52017 3.91194 6.52024 2.98086V2.80087H5.02028C4.40336 2.79548 3.81014 3.03817 3.37389 3.4744C2.93765 3.91064 2.69496 4.50385 2.70034 5.12076V34.8793C2.69502 35.4893 2.93224 36.0764 3.35981 36.5115C3.78739 36.9465 4.37029 37.1939 4.98028 37.1992H18.9799C19.5899 37.1939 20.1728 36.9465 20.6003 36.5115Z" fill="#700AAB"/>
</svg>
