<svg width="40" height="32" viewBox="0 0 40 32" fill="none" xmlns="http://www.w3.org/2000/svg">
<path fill-rule="evenodd" clip-rule="evenodd" d="M34.359 0H5.64103C2.52557 0 0 2.50152 0 5.5873V26.4127C0 29.4985 2.52557 32 5.64103 32H34.359C37.4744 32 40 29.4985 40 26.4127V5.5873C40 2.50152 37.4744 0 34.359 0ZM36.9231 26.4133C36.9231 27.816 35.7751 28.9531 34.359 28.9531H5.64102C4.22491 28.9531 3.07692 27.816 3.07692 26.4133V5.5867C3.07692 4.184 4.22491 3.04688 5.64102 3.04688H34.359C35.7751 3.04688 36.9231 4.184 36.9231 5.5867V26.4133ZM20 13.2063L29.8872 7.5581V7.51746C30.3635 7.24526 30.9503 7.24544 31.4265 7.51795C31.9027 7.79045 32.1959 8.29388 32.1957 8.83858C32.1955 9.38329 31.902 9.88653 31.4256 10.1587C20.4103 16.4571 20.4103 16.4571 20 16.4571C19.734 16.4522 19.4733 16.3824 19.241 16.254L8.57436 10.1587C8.01352 9.93573 7.63645 9.40816 7.61046 8.81013C7.58448 8.21209 7.91441 7.65439 8.45383 7.38449C8.99325 7.1146 9.64225 7.18251 10.1128 7.5581L20 13.2063Z" fill="#700AAB"/>
</svg>
