<svg width="20" height="40" viewBox="0 0 20 40" fill="none" xmlns="http://www.w3.org/2000/svg">
<path fill-rule="evenodd" clip-rule="evenodd" d="M20 9.53706C19.869 4.14613 15.3943 -0.120304 10 0.00258965C4.60575 -0.120304 0.131007 4.14613 0 9.53706C0.0280895 12.4337 1.40301 15.1524 3.72 16.8928L8.58 38.8801C8.73706 39.5368 9.32441 40 10 40C10.6756 40 11.2629 39.5368 11.42 38.8801L16.28 16.8928C18.597 15.1524 19.9719 12.4337 20 9.53706ZM3 10.0103C3.04136 8.10755 3.80221 6.30001 5.11507 4.98558C6.42793 3.67115 8.18518 2.95758 10 3.00195C11.8148 2.95758 13.5721 3.67115 14.8849 4.98558C16.1978 6.30001 16.9586 8.10755 17 10.0103C16.9032 13.9646 13.7718 17.0905 10 16.998C6.22825 17.0905 3.09682 13.9646 3 10.0103ZM10 32L7 19C7.97091 19.2929 8.98152 19.4498 10 19.4657C11.0185 19.4498 12.0291 19.2929 13 19L10 32Z" fill="#700AAB"/>
</svg>
