<svg width="32" height="32" viewBox="0 0 32 32" fill="none" xmlns="http://www.w3.org/2000/svg">
<g id="icon">
<circle id="Oval" cx="16" cy="16" r="16" fill="#E7CFF5"/>
<g id="down">
<path id="hidden" fill-rule="evenodd" clip-rule="evenodd" d="M15.9959 18.9L21.2812 13.1365C21.3594 13.0493 21.4678 13 21.5812 13C21.6946 13 21.803 13.0493 21.8811 13.1365C22.0396 13.3152 22.0396 13.5938 21.8811 13.7726L16.2959 19.8606C16.2186 19.9495 16.1099 20 15.9959 20C15.8819 20 15.7732 19.9495 15.6959 19.8606L10.1167 13.779C9.96111 13.599 9.96111 13.3228 10.1167 13.1428C10.1948 13.0557 10.3032 13.0064 10.4166 13.0064C10.53 13.0064 10.6384 13.0557 10.7166 13.1428L15.9959 18.9Z" fill="#700AAB"/>
</g>
</g>
</svg>
