<svg width="32" height="32" viewBox="0 0 32 32" fill="none" xmlns="http://www.w3.org/2000/svg">
<g id="icon">
<circle id="Oval" cx="16" cy="16" r="16" fill="#700AAB"/>
<g id="down">
<path id="hidden" fill-rule="evenodd" clip-rule="evenodd" d="M15.9959 14.1L21.2812 19.8635C21.3594 19.9507 21.4678 20 21.5812 20C21.6946 20 21.803 19.9507 21.8811 19.8635C22.0396 19.6848 22.0396 19.4062 21.8811 19.2274L16.2959 13.1394C16.2186 13.0505 16.1099 13 15.9959 13C15.8819 13 15.7732 13.0505 15.6959 13.1394L10.1167 19.221C9.96111 19.401 9.96111 19.6772 10.1167 19.8572C10.1948 19.9443 10.3032 19.9936 10.4166 19.9936C10.53 19.9936 10.6384 19.9443 10.7166 19.8572L15.9959 14.1Z" fill="#E7CFF5"/>
</g>
</g>
</svg>
