<svg width="120" height="17" viewBox="0 0 120 17" fill="none" xmlns="http://www.w3.org/2000/svg">
<path fill-rule="evenodd" clip-rule="evenodd" d="M15.3513 5.7037C15.5703 5.74458 15.7441 5.90412 15.7958 6.1117C15.8625 6.33101 15.8015 6.56771 15.6358 6.7322L12.1691 10.3617L12.9869 15.4617C13.0215 15.6781 12.9376 15.8963 12.7647 16.0397C12.6761 16.1134 12.562 16.1528 12.4447 16.1502C12.3602 16.1461 12.2779 16.1228 12.2047 16.0822L7.91134 13.6682L3.618 16.0652C3.43511 16.1681 3.2045 16.1512 3.04023 16.0227C2.8673 15.8793 2.7834 15.6611 2.818 15.4447L3.63578 10.3447L0.169115 6.7152C0.0159727 6.55098 -0.037788 6.32286 0.0268932 6.1117C0.0785441 5.90412 0.252333 5.74458 0.471338 5.7037L5.27134 4.9557L7.41356 0.306201C7.50486 0.122457 7.6986 0.00537109 7.91134 0.00537109C8.12407 0.00537109 8.31782 0.122457 8.40912 0.306201L10.5513 4.9557L15.3513 5.7037ZM11.0491 10.2342C11.0139 10.0443 11.073 9.84954 11.2091 9.7072L14.1158 6.7067L10.1424 6.0862C9.95545 6.05216 9.79865 5.93093 9.72467 5.7632L7.94689 1.9042L6.16912 5.7632C6.09514 5.93093 5.93834 6.05216 5.75134 6.0862L1.778 6.7067L4.61356 9.6732C4.74964 9.81554 4.80877 10.0103 4.77356 10.2002L4.098 14.4502L7.65356 12.4782C7.81257 12.3883 8.01011 12.3883 8.16912 12.4782L11.7247 14.4842L11.0491 10.2342Z" fill="#D4AF37"/>
<path fill-rule="evenodd" clip-rule="evenodd" d="M41.3513 5.7037C41.5703 5.74458 41.7441 5.90412 41.7958 6.1117C41.8625 6.33101 41.8015 6.56771 41.6358 6.7322L38.1691 10.3617L38.9869 15.4617C39.0215 15.6781 38.9376 15.8963 38.7647 16.0397C38.6761 16.1134 38.562 16.1528 38.4447 16.1502C38.3602 16.1461 38.2779 16.1228 38.2047 16.0822L33.9113 13.6682L29.618 16.0652C29.4351 16.1681 29.2045 16.1512 29.0402 16.0227C28.8673 15.8793 28.7834 15.6611 28.818 15.4447L29.6358 10.3447L26.1691 6.7152C26.016 6.55098 25.9622 6.32286 26.0269 6.1117C26.0785 5.90412 26.2523 5.74458 26.4713 5.7037L31.2713 4.9557L33.4136 0.306201C33.5049 0.122457 33.6986 0.00537109 33.9113 0.00537109C34.1241 0.00537109 34.3178 0.122457 34.4091 0.306201L36.5513 4.9557L41.3513 5.7037ZM37.0491 10.2342C37.0139 10.0443 37.073 9.84954 37.2091 9.7072L40.1158 6.7067L36.1424 6.0862C35.9554 6.05216 35.7986 5.93093 35.7247 5.7632L33.9469 1.9042L32.1691 5.7632C32.0951 5.93093 31.9383 6.05216 31.7513 6.0862L27.778 6.7067L30.6136 9.6732C30.7496 9.81554 30.8088 10.0103 30.7736 10.2002L30.098 14.4502L33.6536 12.4782C33.8126 12.3883 34.0101 12.3883 34.1691 12.4782L37.7247 14.4842L37.0491 10.2342Z" fill="#D4AF37"/>
<path fill-rule="evenodd" clip-rule="evenodd" d="M67.3513 5.7037C67.5703 5.74458 67.7441 5.90412 67.7958 6.1117C67.8625 6.33101 67.8015 6.56771 67.6358 6.7322L64.1691 10.3617L64.9869 15.4617C65.0215 15.6781 64.9376 15.8963 64.7647 16.0397C64.6761 16.1134 64.562 16.1528 64.4447 16.1502C64.3602 16.1461 64.2779 16.1228 64.2047 16.0822L59.9113 13.6682L55.618 16.0652C55.4351 16.1681 55.2045 16.1512 55.0402 16.0227C54.8673 15.8793 54.7834 15.6611 54.818 15.4447L55.6358 10.3447L52.1691 6.7152C52.016 6.55098 51.9622 6.32286 52.0269 6.1117C52.0785 5.90412 52.2523 5.74458 52.4713 5.7037L57.2713 4.9557L59.4136 0.306201C59.5049 0.122457 59.6986 0.00537109 59.9113 0.00537109C60.1241 0.00537109 60.3178 0.122457 60.4091 0.306201L62.5513 4.9557L67.3513 5.7037ZM63.0491 10.2342C63.0139 10.0443 63.073 9.84954 63.2091 9.7072L66.1158 6.7067L62.1424 6.0862C61.9554 6.05216 61.7986 5.93093 61.7247 5.7632L59.9469 1.9042L58.1691 5.7632C58.0951 5.93093 57.9383 6.05216 57.7513 6.0862L53.778 6.7067L56.6136 9.6732C56.7496 9.81554 56.8088 10.0103 56.7736 10.2002L56.098 14.4502L59.6536 12.4782C59.8126 12.3883 60.0101 12.3883 60.1691 12.4782L63.7247 14.4842L63.0491 10.2342Z" fill="#D4AF37"/>
<path fill-rule="evenodd" clip-rule="evenodd" d="M93.3513 5.7037C93.5703 5.74458 93.7441 5.90412 93.7958 6.1117C93.8625 6.33101 93.8015 6.56771 93.6358 6.7322L90.1691 10.3617L90.9869 15.4617C91.0215 15.6781 90.9376 15.8963 90.7647 16.0397C90.6761 16.1134 90.562 16.1528 90.4447 16.1502C90.3602 16.1461 90.2779 16.1228 90.2047 16.0822L85.9113 13.6682L81.618 16.0652C81.4351 16.1681 81.2045 16.1512 81.0402 16.0227C80.8673 15.8793 80.7834 15.6611 80.818 15.4447L81.6358 10.3447L78.1691 6.7152C78.016 6.55098 77.9622 6.32286 78.0269 6.1117C78.0785 5.90412 78.2523 5.74458 78.4713 5.7037L83.2713 4.9557L85.4136 0.306201C85.5049 0.122457 85.6986 0.00537109 85.9113 0.00537109C86.1241 0.00537109 86.3178 0.122457 86.4091 0.306201L88.5513 4.9557L93.3513 5.7037ZM89.0491 10.2342C89.0139 10.0443 89.073 9.84954 89.2091 9.7072L92.1158 6.7067L88.1424 6.0862C87.9554 6.05216 87.7986 5.93093 87.7247 5.7632L85.9469 1.9042L84.1691 5.7632C84.0951 5.93093 83.9383 6.05216 83.7513 6.0862L79.778 6.7067L82.6136 9.6732C82.7496 9.81554 82.8088 10.0103 82.7736 10.2002L82.098 14.4502L85.6536 12.4782C85.8126 12.3883 86.0101 12.3883 86.1691 12.4782L89.7247 14.4842L89.0491 10.2342Z" fill="#D4AF37"/>
<path fill-rule="evenodd" clip-rule="evenodd" d="M119.351 5.7037C119.57 5.74458 119.744 5.90412 119.796 6.1117C119.863 6.33101 119.802 6.56771 119.636 6.7322L116.169 10.3617L116.987 15.4617C117.022 15.6781 116.938 15.8963 116.765 16.0397C116.676 16.1134 116.562 16.1528 116.445 16.1502C116.36 16.1461 116.278 16.1228 116.205 16.0822L111.911 13.6682L107.618 16.0652C107.435 16.1681 107.205 16.1512 107.04 16.0227C106.867 15.8793 106.783 15.6611 106.818 15.4447L107.636 10.3447L104.169 6.7152C104.016 6.55098 103.962 6.32286 104.027 6.1117C104.079 5.90412 104.252 5.74458 104.471 5.7037L109.271 4.9557L111.414 0.306201C111.505 0.122457 111.699 0.00537109 111.911 0.00537109C112.124 0.00537109 112.318 0.122457 112.409 0.306201L114.551 4.9557L119.351 5.7037ZM115.049 10.2342C115.014 10.0443 115.073 9.84954 115.209 9.7072L118.116 6.7067L114.142 6.0862C113.955 6.05216 113.799 5.93093 113.725 5.7632L111.947 1.9042L110.169 5.7632C110.095 5.93093 109.938 6.05216 109.751 6.0862L105.778 6.7067L108.614 9.6732C108.75 9.81554 108.809 10.0103 108.774 10.2002L108.098 14.4502L111.654 12.4782C111.813 12.3883 112.01 12.3883 112.169 12.4782L115.725 14.4842L115.049 10.2342Z" fill="#D4AF37"/>
</svg>
