<svg width="80" height="80" viewBox="0 0 80 80" fill="none" xmlns="http://www.w3.org/2000/svg">
<g id="icon">
<circle id="Oval" cx="40" cy="39.9999" r="40" fill="#E7CFF5"/>
<path id="fabric" fill-rule="evenodd" clip-rule="evenodd" d="M54.86 31.5799L53.32 28.5199L54.84 25.6999C54.9508 25.4835 55.0058 25.2429 55 24.9999C55 22.6991 53.1407 20.8309 50.84 20.8199H37C36.8325 18.6592 35.0271 16.9934 32.86 16.9999H29.16C26.8593 17.0109 25 18.8791 25 21.1799V52.8199C25 55.1206 26.8593 56.9888 29.16 56.9999H50.84C53.1407 56.9888 55 55.1206 55 52.8199C54.9983 52.4635 54.8626 52.1208 54.62 51.8599L53.44 50.5799L54.86 47.7199C55.0388 47.3259 55.0388 46.8738 54.86 46.4799L53.32 43.3799L54.86 40.2799C55.0397 39.8791 55.0397 39.4206 54.86 39.0199L53.32 35.9399L54.86 32.8399C55.0397 32.4391 55.0397 31.9806 54.86 31.5799ZM29.16 19.7999H32.86C33.6222 19.7999 34.24 20.4177 34.24 21.1799V46.6799C32.3095 45.2945 29.7105 45.2945 27.78 46.6799V21.1799C27.78 20.8139 27.9254 20.4628 28.1842 20.204C28.443 19.9452 28.794 19.7999 29.16 19.7999ZM28.14 51.3199C28.14 50.1532 28.8439 49.1018 29.9225 48.6572C31.0012 48.2127 32.2415 48.4627 33.0636 49.2906C33.8856 50.1184 34.1271 51.3604 33.675 52.4359C33.2229 53.5114 32.1666 54.208 31 54.1999C30.238 54.1999 29.5075 53.8958 28.9706 53.3551C28.4336 52.8144 28.1347 52.0818 28.14 51.3199ZM50.52 29.1199L52.06 32.2199L50.52 35.2999C50.3403 35.7006 50.3403 36.1591 50.52 36.5599L52.06 39.6599L50.52 42.7599C50.3412 43.1538 50.3412 43.6059 50.52 43.9999L52.06 47.0999L50.52 50.1999C50.2592 50.7178 50.3556 51.3442 50.76 51.7599L52.14 53.2799C51.9503 53.8347 51.4264 54.2055 50.84 54.1999H37V23.6399H50.82C51.4722 23.6507 52.0331 24.1044 52.18 24.7399L50.52 27.8199C50.3195 28.23 50.3195 28.7097 50.52 29.1199Z" fill="#700AAB"/>
</g>
</svg>
