<svg width="32" height="32" viewBox="0 0 32 32" fill="none" xmlns="http://www.w3.org/2000/svg">
<g id="features tick icon">
<circle id="Oval" cx="16" cy="15.9999" r="16" fill="#5F0F40"/>
<path id="tick" d="M23.8033 9.79629C23.6786 9.67061 23.5085 9.59988 23.3311 9.59988C23.1537 9.59988 22.9837 9.67061 22.8589 9.79629L12.2304 20.7008L9.14107 17.5738C9.01855 17.444 8.84768 17.3704 8.66887 17.3704C8.49006 17.3704 8.31918 17.444 8.19667 17.5738C7.93444 17.8456 7.93444 18.2752 8.19667 18.547L11.7502 22.2004C11.8764 22.3292 12.0498 22.4012 12.2304 22.3999C12.4086 22.4009 12.5794 22.3288 12.7026 22.2004L23.8033 10.7695C24.0656 10.4977 24.0656 10.068 23.8033 9.79629Z" fill="white"/>
</g>
</svg>
