<svg width="80" height="80" viewBox="0 0 80 80" fill="none" xmlns="http://www.w3.org/2000/svg">
<g id="icon">
<circle id="Oval" cx="40" cy="39.9999" r="40" fill="#E7CFF5"/>
<path id="timeless" fill-rule="evenodd" clip-rule="evenodd" d="M49.2987 29.0001C43.3964 29.0104 38.6141 33.7926 38.6039 39.695C38.5935 39.7565 38.5935 39.8194 38.6039 39.881C38.5909 39.9735 38.5909 40.0674 38.6039 40.1599C38.3878 43.8691 35.612 46.9244 31.9404 47.4942C28.2689 48.064 24.6976 45.9939 23.3674 42.5247C22.0372 39.0555 23.3089 35.1283 26.4202 33.0974C29.5315 31.0664 33.6383 31.4826 36.2789 34.0964C36.6267 34.4697 37.1504 34.6233 37.6447 34.4971C38.1389 34.3708 38.5249 33.9849 38.6511 33.4906C38.7773 32.9964 38.6237 32.4726 38.2505 32.1249C34.8249 28.7063 29.5305 28.0141 25.3412 30.4371C21.1519 32.8602 19.1118 37.7945 20.3669 42.4686C21.622 47.1426 25.8594 50.3912 30.699 50.3898C36.4215 50.3852 41.1264 45.877 41.3752 40.1599C41.3842 40.0734 41.3842 39.9861 41.3752 39.8996C41.3858 39.8193 41.3858 39.738 41.3752 39.6578C41.3958 35.2993 44.9402 31.7799 49.2986 31.7901C53.6571 31.8004 57.1849 35.3365 57.1849 39.6949C57.1849 44.0534 53.6572 47.5895 49.2987 47.5998C47.329 47.6052 45.4296 46.868 43.9792 45.5353C43.4305 45.0013 42.5564 45.0013 42.0076 45.5353C41.7283 45.8125 41.579 46.1949 41.5967 46.5882C41.6144 46.9814 41.7975 47.3488 42.1006 47.5998C45.6336 50.8194 50.8739 51.3037 54.937 48.7862C59.0002 46.2688 60.8996 41.3608 59.5896 36.764C58.2797 32.1672 54.0786 28.9976 49.2987 29.0001Z" fill="#700AAB"/>
</g>
</svg>
