<svg width="80" height="80" viewBox="0 0 80 80" fill="none" xmlns="http://www.w3.org/2000/svg">
<g id="icon">
<circle id="Oval" cx="40" cy="39.9999" r="40" fill="#E7CFF5"/>
<path id="wood" fill-rule="evenodd" clip-rule="evenodd" d="M55.32 38.7821H52.18C52.5242 38.1709 52.7098 37.4834 52.72 36.7821V33.4821C52.6939 32.2601 52.1805 31.0994 51.294 30.258C50.4076 29.4166 49.2216 28.9644 48 29.0021H28C25.5013 28.9905 23.4545 30.9839 23.4 33.4821V36.7421C23.4215 37.447 23.621 38.135 23.98 38.7421C21.7056 39.0337 20.0015 40.969 20 43.2621V46.5221C20.0262 47.7368 20.5341 48.8914 21.4118 49.7316C22.2896 50.5719 23.4652 51.0289 24.68 51.0021H55.32C56.5348 51.0289 57.7104 50.5719 58.5882 49.7316C59.4659 48.8914 59.9738 47.7368 60 46.5221V43.2621C59.9738 42.0473 59.4659 40.8927 58.5882 40.0525C57.7104 39.2122 56.5348 38.7552 55.32 38.7821ZM39.08 44.8821C39.1878 42.8647 40.9018 41.3113 42.92 41.4021C44.9382 41.3113 46.6522 42.8647 46.76 44.8821C46.6628 46.9074 44.9457 48.4725 42.92 48.3821C40.8943 48.4725 39.1772 46.9074 39.08 44.8821ZM53.6 48.3821C51.5743 48.4725 49.8572 46.9074 49.76 44.8821C49.8678 42.8647 51.5818 41.3113 53.6 41.4021C55.6182 41.3113 57.3322 42.8647 57.44 44.8821C57.3428 46.9074 55.6257 48.4725 53.6 48.3821ZM46.32 31.6221C48.3457 31.5316 50.0628 33.0967 50.16 35.1221C50.0522 37.1395 48.3382 38.6928 46.32 38.6021C44.3018 38.6928 42.5878 37.1395 42.48 35.1221C42.5772 33.0967 44.2943 31.5316 46.32 31.6221ZM26 33.4821C25.9893 32.9447 26.1952 32.4257 26.5715 32.0419C26.9477 31.6581 27.4626 31.4419 28 31.4421H41.24C40.4072 32.4849 39.9682 33.7878 40 35.1221C40.0144 36.4738 40.519 37.7743 41.42 38.7821H28C27.4626 38.7822 26.9477 38.566 26.5715 38.1822C26.1952 37.7984 25.9893 37.2794 26 36.7421V33.4821ZM24.68 48.5621C24.1291 48.5952 23.589 48.3992 23.1876 48.0204C22.7861 47.6417 22.559 47.1139 22.56 46.5621V43.2621C22.559 42.7102 22.7861 42.1824 23.1876 41.8037C23.589 41.4249 24.1291 41.2289 24.68 41.2621H38C37.9417 41.3317 37.8883 41.4052 37.84 41.4821L37.6 41.8021C37.48 42.0021 37.36 42.2021 37.26 42.4021L37.08 42.7621C36.98 43.0021 36.92 43.2421 36.84 43.4821C36.8463 43.5953 36.8463 43.7088 36.84 43.8221C36.7694 44.1847 36.7292 44.5527 36.72 44.9221C36.7281 45.2981 36.7683 45.6728 36.84 46.0421C36.8489 46.1552 36.8489 46.2689 36.84 46.3821C36.8775 46.5907 36.9242 46.7976 36.98 47.0021L37.16 47.3821C37.2614 47.5821 37.3749 47.7758 37.5 47.9621L37.74 48.3021C37.8185 48.3965 37.9055 48.4836 38 48.5621H24.68Z" fill="#700AAB"/>
</g>
</svg>
