<svg width="1440" height="846" viewBox="0 0 1440 846" fill="none" xmlns="http://www.w3.org/2000/svg">
<path fill-rule="evenodd" clip-rule="evenodd" d="M129.173 6.75304C307.807 -28.274 309.558 83.81 582.763 95.194C855.967 106.577 792.919 180.132 985.564 176.63C1178.21 173.127 1148.07 135.261 1282.92 140.515C1335.3 142.556 1505.33 177.244 1541 299C1597.15 490.676 1508.6 803.843 1540.73 829.49C1540.73 829.49 1276.4 801.328 1178.01 800.378C1035.04 798.998 786.136 847.013 643.168 845.634C533.101 844.572 268.818 805.063 158.751 804C99.5004 803.428 -102 813.635 -102 813.635C-102 813.635 -153.554 415.666 -77.2927 176.63C-44.3296 73.3093 75.2631 17.3236 129.173 6.75304Z" fill="#F7F7DE"/>
</svg>
